<svg width="75" height="69" viewBox="0 0 75 69" fill="none" xmlns="http://www.w3.org/2000/svg">
<path d="M66.7982 38.3091C71.8885 34.8798 75 29.1007 75 22.9155C75 19.9759 74.3313 17.1629 73.0122 14.5554C72.7384 14.014 72.0773 13.797 71.5361 14.0708C70.9947 14.3446 70.7776 15.0057 71.0515 15.5469C72.2134 17.8444 72.8027 20.3236 72.8027 22.9155C72.8027 28.4781 69.9472 33.6679 65.2972 36.6665L58.9009 29.6673C58.158 28.854 57.0999 28.3877 55.9985 28.3877H41.0416C40.4181 26.6346 40.1019 24.7973 40.1019 22.9155C40.1019 13.8999 47.4366 6.56523 56.4523 6.56523C61.129 6.56523 65.5916 8.57559 68.6959 12.0808C69.0978 12.5349 69.7922 12.5774 70.2467 12.1749C70.701 11.7726 70.7432 11.0783 70.3408 10.624C68.7268 8.80147 66.7882 7.33662 64.6516 6.28296V2.56211C64.6516 1.21006 63.5517 0.110107 62.1996 0.110107H50.7051C49.3531 0.110107 48.2531 1.21006 48.2531 2.56211V6.28193C42.1273 9.31387 37.9046 15.6303 37.9046 22.9155C37.9046 24.7882 38.1817 26.6222 38.7274 28.3877H10.7121C9.31069 28.3877 8.15947 29.4711 8.04712 30.8443H4.02832C3.42158 30.8443 2.92969 31.336 2.92969 31.9429C2.92969 32.5498 3.42158 33.0416 4.02832 33.0416H8.03599V43.6605H1.09863C0.491895 43.6605 0 44.1522 0 44.7591C0 45.366 0.491895 45.8578 1.09863 45.8578H8.03599V49.0712C7.43408 49.0768 6.94761 49.566 6.94761 50.1692C6.94761 50.7725 7.43394 51.2617 8.03599 51.2673V59.0386C8.03599 60.192 8.97437 61.1302 10.1276 61.1302H13.0835V61.895H9.65581C9.04907 61.895 8.55718 62.3868 8.55718 62.9937C8.55718 63.6005 9.04907 64.0923 9.65581 64.0923H14.1822C14.7889 64.0923 15.2808 63.6005 15.2808 62.9937V61.1302H16.2832C16.6318 65.4668 20.2698 68.8895 24.6945 68.8895C26.1546 68.8895 27.596 68.5085 28.8627 67.7878C29.39 67.4876 29.5742 66.8169 29.2742 66.2896C28.9742 65.7621 28.3036 65.5782 27.7759 65.8779C26.8399 66.4107 25.7742 66.6922 24.6945 66.6922C21.2517 66.6922 18.4506 63.8913 18.4506 60.4483C18.4506 57.0054 21.2517 54.2044 24.6945 54.2044C28.1373 54.2044 30.9384 57.0054 30.9384 60.4483C30.9384 61.387 30.7349 62.2898 30.3335 63.1316C30.0724 63.6793 30.3048 64.335 30.8524 64.596C31.4002 64.8571 32.0558 64.6248 32.3169 64.0772C32.7621 63.1435 33.0242 62.1546 33.1055 61.1302H52.8595C53.2081 65.4668 56.846 68.8895 61.2708 68.8895C65.6955 68.8895 69.3333 65.4668 69.682 61.1302H71.9436C73.6289 61.1302 75 59.7591 75 58.0738V48.8058C75 47.8242 74.6354 46.8845 73.9731 46.16L66.7982 38.3091ZM50.4504 2.56211C50.4504 2.42163 50.5646 2.30737 50.7051 2.30737H62.1996C62.3401 2.30737 62.4543 2.42163 62.4543 2.56211V5.36963C60.5411 4.7144 58.5154 4.36811 56.4523 4.36811C54.3527 4.36811 52.3337 4.71938 50.4502 5.36523V2.56211H50.4504ZM57.2791 31.1497L68.7122 43.6605H60.5168C59.9099 43.6605 59.4182 44.1522 59.4182 44.7591C59.4182 45.366 59.9099 45.8578 60.5168 45.8578H70.7202L72.3513 47.6427C73.0163 48.3704 72.7368 49.1601 72.8027 49.9981H71.9558C71.3489 49.9981 70.8571 50.4899 70.8571 51.0968C70.8571 51.7037 71.3489 52.1954 71.9558 52.1954H72.8027V53.8211H66.4891C65.0518 52.6869 63.2396 52.0075 61.2709 52.0075C59.3021 52.0075 57.49 52.6869 56.0527 53.8211H44.0824V30.5852H48.8208V43.6467C48.8208 44.8659 49.8126 45.8579 51.0318 45.8579H56.1246C56.7315 45.8579 57.2232 45.3662 57.2232 44.7593C57.2232 44.1524 56.7315 43.6606 56.1246 43.6606H51.0318C51.0242 43.6606 51.018 43.6543 51.018 43.6467V30.5852H55.9988C56.4844 30.5852 56.9512 30.791 57.2791 31.1497ZM52.9685 58.9333H44.0821V56.0184H54.0896C53.5459 56.8964 53.1601 57.8812 52.9685 58.9333ZM31.8754 56.0184H41.8849V58.9333H32.9966C32.805 57.8812 32.4192 56.8964 31.8754 56.0184ZM10.2333 56.0184H17.5132C16.9695 56.8964 16.5836 57.8812 16.392 58.9333H10.2333V56.0184ZM19.4761 53.8211H10.2333V51.268H14.994C15.6007 51.268 16.0926 50.7763 16.0926 50.1694C16.0926 49.5625 15.6007 49.0708 14.994 49.0708H10.2333V45.8578H14.994C15.6007 45.8578 16.0926 45.366 16.0926 44.7591C16.0926 44.1522 15.6007 43.6605 14.994 43.6605H10.2333V31.064C10.2333 30.7999 10.448 30.585 10.7121 30.585H41.8849V53.8209H29.9127C28.4754 52.6867 26.6632 52.0073 24.6945 52.0073C22.7257 52.0073 20.9136 52.6869 19.4761 53.8211ZM61.2708 66.6925C57.8278 66.6925 55.0269 63.8916 55.0269 60.4486C55.0269 57.0057 57.8278 54.2047 61.2708 54.2047C64.7137 54.2047 67.5146 57.0057 67.5146 60.4486C67.5146 63.8916 64.7137 66.6925 61.2708 66.6925ZM71.9435 58.9333H69.5729C69.3813 57.8812 68.9955 56.8964 68.4517 56.0184H72.8027V58.0741C72.8027 58.5479 72.4173 58.9333 71.9435 58.9333Z" fill="#AEAEAE"/>
</svg>
