<svg width="145" height="136" viewBox="0 0 145 136" fill="none" xmlns="http://www.w3.org/2000/svg">
<path d="M11.3281 44.4125V90.1234C6.06734 94.3224 4.53125 112.412 4.53125 112.625C4.53125 114.879 5.48605 117.041 7.1856 118.635C8.88514 120.229 11.1902 121.125 13.5938 121.125C15.9973 121.125 18.3024 120.229 20.0019 118.635C21.7015 117.041 22.6562 114.879 22.6562 112.625C22.6562 112.412 21.1202 94.3224 15.8594 90.1234V44.4125C18.4163 43.9193 20.7138 42.6144 22.3646 40.7177C24.0154 38.8209 24.9186 36.4484 24.9219 34V17H20.3906V34C20.3848 35.3138 19.9464 36.5938 19.1353 37.665C18.3242 38.7361 17.18 39.5461 15.8594 39.984V17H11.3281V39.984C10.0075 39.5461 8.86333 38.7361 8.05223 37.665C7.24113 36.5938 6.80268 35.3138 6.79688 34V17H2.26562V34C2.26892 36.4484 3.17208 38.8209 4.82288 40.7177C6.47367 42.6144 8.77117 43.9193 11.3281 44.4125ZM18.125 112.625C18.125 113.752 17.6476 114.833 16.7978 115.63C15.9481 116.427 14.7955 116.875 13.5938 116.875C12.392 116.875 11.2394 116.427 10.3897 115.63C9.5399 114.833 9.0625 113.752 9.0625 112.625C9.0625 108.84 11.5434 96.9 13.5938 93.925C15.6441 96.9 18.125 108.84 18.125 112.625Z" fill="#FF9900"/>
<path d="M126.875 46.3803V90.1234C121.614 94.3224 120.078 112.412 120.078 112.625C120.078 114.879 121.033 117.041 122.732 118.635C124.432 120.229 126.737 121.125 129.141 121.125C131.544 121.125 133.849 120.229 135.549 118.635C137.248 117.041 138.203 114.879 138.203 112.625C138.203 112.412 136.667 94.3224 131.406 90.1234V46.3803C138.165 44.3445 142.734 33.6855 142.734 27.625C142.734 24.2435 141.302 21.0005 138.753 18.6094C136.204 16.2183 132.746 14.875 129.141 14.875C125.535 14.875 122.078 16.2183 119.528 18.6094C116.979 21.0005 115.547 24.2435 115.547 27.625C115.547 33.6855 120.117 44.3445 126.875 46.3803ZM133.672 112.625C133.672 113.752 133.194 114.833 132.345 115.63C131.495 116.427 130.342 116.875 129.141 116.875C127.939 116.875 126.786 116.427 125.937 115.63C125.087 114.833 124.609 113.752 124.609 112.625C124.609 108.84 127.09 96.9 129.141 93.925C131.191 96.9 133.672 108.84 133.672 112.625ZM129.141 19.125C131.544 19.125 133.849 20.0205 135.549 21.6146C137.248 23.2087 138.203 25.3707 138.203 27.625C138.203 32.827 133.545 42.5 129.141 42.5C124.736 42.5 120.078 32.827 120.078 27.625C120.078 25.3707 121.033 23.2087 122.732 21.6146C124.432 20.0205 126.737 19.125 129.141 19.125Z" fill="#FF9900"/>
<path d="M72.5 112.625C82.3582 112.625 91.9949 109.883 100.192 104.746C108.388 99.6093 114.777 92.3079 118.55 83.7655C122.322 75.223 123.309 65.8232 121.386 56.7545C119.463 47.6859 114.716 39.3559 107.745 32.8178C100.774 26.2797 91.8928 21.8272 82.224 20.0233C72.5553 18.2195 62.5334 19.1453 53.4256 22.6837C44.3179 26.222 36.5333 32.2141 31.0564 39.9021C25.5795 47.5901 22.6563 56.6287 22.6562 65.875C22.6712 78.2696 27.9274 90.1525 37.2717 98.9167C46.616 107.681 59.2852 112.611 72.5 112.625ZM72.5 23.375C81.462 23.375 90.2227 25.8676 97.6743 30.5376C105.126 35.2075 110.934 41.8451 114.363 49.611C117.793 57.3768 118.69 65.9222 116.942 74.1664C115.193 82.4105 110.878 89.9833 104.541 95.9271C98.2037 101.871 90.1298 105.919 81.34 107.558C72.5503 109.198 63.4394 108.357 55.1597 105.14C46.8799 101.923 39.803 96.4758 34.824 89.4868C29.845 82.4977 27.1875 74.2807 27.1875 65.875C27.2013 54.6073 31.9797 43.8048 40.4745 35.8373C48.9692 27.8698 60.4866 23.388 72.5 23.375Z" fill="#FF9900"/>
<path d="M55.5078 74.375C57.6109 74.375 59.6279 73.5914 61.115 72.1966C62.6021 70.8018 63.4375 68.91 63.4375 66.9375V53.125H58.9063V66.9375C58.9063 67.7829 58.5482 68.5936 57.9109 69.1914C57.2736 69.7892 56.4092 70.125 55.5078 70.125C54.6065 70.125 53.7421 69.7892 53.1048 69.1914C52.4675 68.5936 52.1094 67.7829 52.1094 66.9375C52.108 66.3741 52.2747 65.8216 52.5906 65.3425C52.9065 64.8633 53.359 64.4766 53.897 64.226L55.3878 63.5269L53.3623 59.7253L51.8715 60.4244C50.5786 61.0254 49.4912 61.9542 48.7323 63.1054C47.9735 64.2565 47.5737 65.5841 47.5782 66.9375C47.5782 68.91 48.4136 70.8018 49.9007 72.1966C51.3878 73.5914 53.4048 74.375 55.5078 74.375Z" fill="#FF9900"/>
<path d="M67.9687 65.8754H72.5V65.5121C72.5065 63.3264 72.0507 61.1612 71.1589 59.1419C70.2672 57.1226 68.9572 55.2893 67.3049 53.748L64.1013 56.7549C65.3314 57.9022 66.3065 59.2669 66.9704 60.7701C67.6342 62.2733 67.9736 63.885 67.9687 65.5121V65.8754Z" fill="#FF9900"/>
<path d="M65.7031 74.3749C69.072 74.3707 72.3523 73.3625 75.0705 71.4959C77.7887 69.6294 79.8042 67.0009 80.8262 63.9901L82.2263 67.0586C82.9305 68.6002 84.1017 69.9139 85.5948 70.8368C87.0878 71.7597 88.8369 72.251 90.625 72.2499H95.1562C95.7571 72.2499 96.3334 72.0261 96.7583 71.6276C97.1832 71.229 97.4219 70.6885 97.4219 70.1249V67.9999C97.4219 65.7456 96.4671 63.5836 94.7675 61.9895C93.068 60.3955 90.7629 59.4999 88.3594 59.4999V63.7499C89.5611 63.7499 90.7137 64.1977 91.5635 64.9947C92.4132 65.7918 92.8906 66.8728 92.8906 67.9999H90.625C89.7233 68.0007 88.8413 67.7529 88.0885 67.2875C87.3357 66.8221 86.7453 66.1594 86.3905 65.3819L81.379 54.4127C81.1733 53.963 80.8085 53.5937 80.3461 53.3671C79.8838 53.1405 79.3522 53.0705 78.8412 53.1689C78.3302 53.2673 77.8711 53.5281 77.5413 53.9073C77.2115 54.2864 77.0314 54.7607 77.0312 55.2499V59.4999C77.0277 62.3168 75.833 65.0174 73.7093 67.0092C71.5857 69.0011 68.7064 70.1216 65.7031 70.1249V74.3749Z" fill="#FF9900"/>
<path d="M72.5 97.75C79.2215 97.75 85.792 95.8806 91.3807 92.3781C96.9694 88.8756 101.325 83.8974 103.897 78.073C106.47 72.2486 107.143 65.8396 105.831 59.6565C104.52 53.4734 101.283 47.7938 96.5306 43.336C91.7778 38.8782 85.7223 35.8424 79.13 34.6125C72.5377 33.3826 65.7046 34.0138 59.4947 36.4264C53.2849 38.8389 47.9773 42.9244 44.243 48.1662C40.5088 53.408 38.5156 59.5707 38.5156 65.875C38.5258 74.3258 42.1096 82.4278 48.4807 88.4035C54.8518 94.3791 63.4899 97.7404 72.5 97.75ZM72.5 38.25C78.3253 38.25 84.0197 39.8702 88.8633 42.9057C93.7068 45.9411 97.4819 50.2556 99.7111 55.3034C101.94 60.3512 102.524 65.9057 101.387 71.2644C100.251 76.6231 97.4456 81.5454 93.3265 85.4088C89.2074 89.2722 83.9594 91.9033 78.246 92.9692C72.5327 94.0351 66.6106 93.488 61.2288 91.3972C55.8469 89.3063 51.247 85.7655 48.0106 81.2226C44.7743 76.6797 43.0469 71.3387 43.0469 65.875C43.0559 58.551 46.1618 51.5294 51.6834 46.3505C57.205 41.1716 64.6913 38.2584 72.5 38.25Z" fill="#FF9900"/>
</svg>
